<!-- TaskFlow Pro Project Preview -->
<svg width="600" height="400" xmlns="http://www.w3.org/2000/svg">
  <defs>
    <linearGradient id="taskflowGrad" x1="0%" y1="0%" x2="100%" y2="100%">
      <stop offset="0%" style="stop-color:#667eea;stop-opacity:1" />
      <stop offset="100%" style="stop-color:#764ba2;stop-opacity:1" />
    </linearGradient>
  </defs>
  <rect width="600" height="400" fill="url(#taskflowGrad)" rx="20"/>
  
  <!-- Header Bar -->
  <rect x="40" y="40" width="520" height="50" fill="white" opacity="0.95" rx="8"/>
  <circle cx="70" cy="65" r="8" fill="#667eea"/>
  <rect x="90" y="58" width="120" height="14" fill="#667eea" opacity="0.8" rx="7"/>
  
  <!-- Navigation -->
  <rect x="480" y="58" width="60" height="14" fill="#667eea" opacity="0.6" rx="7"/>
  
  <!-- Task Cards -->
  <rect x="40" y="110" width="160" height="120" fill="white" opacity="0.9" rx="8"/>
  <rect x="50" y="125" width="140" height="10" fill="#667eea" opacity="0.8" rx="5"/>
  <rect x="50" y="145" width="100" height="8" fill="#667eea" opacity="0.6" rx="4"/>
  <rect x="50" y="160" width="80" height="8" fill="#667eea" opacity="0.4" rx="4"/>
  <circle cx="170" cy="200" r="15" fill="#4ade80"/>
  
  <rect x="220" y="110" width="160" height="120" fill="white" opacity="0.9" rx="8"/>
  <rect x="230" y="125" width="120" height="10" fill="#667eea" opacity="0.8" rx="5"/>
  <rect x="230" y="145" width="90" height="8" fill="#667eea" opacity="0.6" rx="4"/>
  <rect x="230" y="160" width="110" height="8" fill="#667eea" opacity="0.4" rx="4"/>
  <circle cx="350" cy="200" r="15" fill="#f59e0b"/>
  
  <rect x="400" y="110" width="160" height="120" fill="white" opacity="0.9" rx="8"/>
  <rect x="410" y="125" width="100" height="10" fill="#667eea" opacity="0.8" rx="5"/>
  <rect x="410" y="145" width="130" height="8" fill="#667eea" opacity="0.6" rx="4"/>
  <rect x="410" y="160" width="70" height="8" fill="#667eea" opacity="0.4" rx="4"/>
  <circle cx="530" cy="200" r="15" fill="#ef4444"/>
  
  <!-- Bottom Analytics -->
  <rect x="40" y="250" width="520" height="100" fill="white" opacity="0.9" rx="8"/>
  <text x="300" y="280" font-family="Arial, sans-serif" font-size="14" font-weight="bold" fill="#667eea" text-anchor="middle">Project Analytics</text>
  
  <!-- Chart bars -->
  <rect x="80" y="290" width="20" height="40" fill="#4ade80" rx="2"/>
  <rect x="120" y="300" width="20" height="30" fill="#f59e0b" rx="2"/>
  <rect x="160" y="295" width="20" height="35" fill="#ef4444" rx="2"/>
  <rect x="200" y="285" width="20" height="45" fill="#3b82f6" rx="2"/>
  
  <rect x="350" y="290" width="20" height="40" fill="#4ade80" rx="2"/>
  <rect x="390" y="300" width="20" height="30" fill="#f59e0b" rx="2"/>
  <rect x="430" y="295" width="20" height="35" fill="#ef4444" rx="2"/>
  <rect x="470" y="285" width="20" height="45" fill="#3b82f6" rx="2"/>
  
  <text x="300" y="370" font-family="Arial, sans-serif" font-size="12" fill="white" text-anchor="middle" opacity="0.8">TaskFlow Pro - Task Management Platform</text>
</svg>
